<svg width="38" height="38" viewBox="0 0 38 38" fill="none" xmlns="http://www.w3.org/2000/svg">
<path d="M1.38492 17.4163L15.1424 6.8783C16.4589 5.87219 18.3562 6.80935 18.3562 8.47081V11.719L35.9769 17.0828C36.8392 17.3473 37.3969 18.1004 37.3969 18.9973C37.3969 19.8998 36.8392 20.6472 35.9769 20.9117L18.3561 26.2813V29.5295C18.3561 31.1909 16.4589 32.128 15.1423 31.122L1.38492 20.5898C0.890476 20.2103 0.603027 19.6297 0.603027 19.003C0.6031 18.3763 0.890549 17.7957 1.38492 17.4163ZM18.3561 25.0798L35.6435 19.8137C36.0861 19.6757 36.2471 19.302 36.2471 18.9973C36.2471 18.6927 36.0861 18.319 35.6435 18.1867L18.3562 12.9206V25.0798H18.3561Z" fill="white"/>
</svg>
