<svg width="38" height="38" viewBox="0 0 38 38" fill="none" xmlns="http://www.w3.org/2000/svg">
<path d="M36.6151 17.4163L22.8576 6.8783C21.5411 5.87219 19.6439 6.80935 19.6439 8.47081V11.719L2.0231 17.0828C1.16083 17.3473 0.603149 18.1004 0.603149 18.9973C0.603149 19.8998 1.16083 20.6472 2.02318 20.9117L19.644 26.2813V29.5295C19.644 31.1909 21.5411 32.128 22.8577 31.122L36.6151 20.5898C37.1096 20.2103 37.397 19.6297 37.397 19.003C37.3969 18.3763 37.1095 17.7957 36.6151 17.4163ZM19.644 25.0798L2.35657 19.8137C1.91393 19.6757 1.75295 19.302 1.75295 18.9973C1.75295 18.6927 1.91393 18.319 2.35657 18.1867L19.6439 12.9206V25.0798H19.644Z" fill="white"/>
</svg>
